<svg height="512pt" viewBox="-2 0 512 512" width="512pt" xmlns="http://www.w3.org/2000/svg"><path d="m493.699219 512h-478.699219c-8.285156 0-15-6.714844-15-15v-69.464844c0-8.28125 6.714844-15 15-15 39.445312 0 71.535156-32.089844 71.535156-71.535156s-32.089844-71.535156-71.535156-71.535156c-8.285156 0-15-6.71875-15-15v-239.464844c0-8.285156 6.714844-15 15-15h478.699219c8.285156 0 15 6.714844 15 15v69.464844c0 8.28125-6.714844 15-15 15-39.445313 0-71.535157 32.089844-71.535157 71.535156s32.089844 71.535156 71.535157 71.535156c8.285156 0 15 6.71875 15 15v239.464844c0 8.285156-6.714844 15-15 15zm0 0" fill="#ffd400"/><path d="m493.699219 99.464844c8.285156 0 15-6.71875 15-15v-69.464844c0-8.285156-6.714844-15-15-15h-239.347657v512h239.347657c8.285156 0 15-6.714844 15-15v-239.464844c0-8.28125-6.714844-15-15-15-39.445313 0-71.535157-32.089844-71.535157-71.535156s32.089844-71.535156 71.535157-71.535156zm0 0" fill="#fdbf00"/><path d="m149.433594 241.714844c-49.117188 0-89.074219-39.957032-89.074219-89.070313s39.957031-89.070312 89.074219-89.070312c49.113281 0 89.070312 39.957031 89.070312 89.070312s-39.957031 89.070313-89.070312 89.070313zm0 0" fill="#ffa100"/><path d="m318.257812 261.335938c-28.453124 0-51.605468-23.152344-51.605468-51.609376 0-28.457031 23.152344-51.605468 51.605468-51.605468 28.457032 0 51.609376 23.148437 51.609376 51.605468 0 28.457032-23.152344 51.609376-51.609376 51.609376zm0 0" fill="#f87d00"/><path d="m254.351562 442.335938c-41.042968 0-74.429687-33.386719-74.429687-74.429688 0-41.039062 33.386719-74.425781 74.429687-74.425781 41.039063 0 74.425782 33.386719 74.425782 74.425781 0 41.042969-33.386719 74.429688-74.425782 74.429688zm0 0" fill="#ffa100"/><path d="m328.777344 367.90625c0-41.039062-33.386719-74.425781-74.425782-74.425781v148.855469c41.039063 0 74.425782-33.386719 74.425782-74.429688zm0 0" fill="#f87d00"/></svg>